<?xml version="1.0" encoding="utf-8"?><svg version="1.1" id="Layer_1" xmlns="http://www.w3.org/2000/svg" xmlns:xlink="http://www.w3.org/1999/xlink" x="0px" y="0px" width="121.796px" height="122.88px" viewBox="0 0 121.796 122.88" enable-background="new 0 0 121.796 122.88" xml:space="preserve"><g><path d="M53.708,0c14.79,0,28.203,6.019,37.917,15.694c9.716,9.716,15.695,23.089,15.695,37.918 c0,10.817-3.227,20.926-8.733,29.343l23.208,25.292l-16.01,14.632L83.405,98.257c-8.496,5.664-18.723,8.969-29.697,8.969 c-14.789,0-28.202-6.019-37.918-15.694C6.282,82.022,0.353,69.01,0.105,54.559c-0.14-0.518-0.139-1.061-0.005-1.574 c0.167-14.542,6.151-27.712,15.69-37.291C25.506,5.979,38.879,0,53.708,0L53.708,0z M6.83,45.144 c0.626-0.61,1.258-1.206,1.896-1.786C21.102,32.093,35.8,26.075,50.951,25.772c15.118-0.302,30.622,5.095,44.643,16.655 c1.803,1.486,3.575,3.067,5.313,4.744c-1.435-10.568-6.347-20.047-13.529-27.229l0,0C78.764,11.329,66.846,5.979,53.708,5.979 c-13.138,0-25.056,5.35-33.67,13.964C13.319,26.662,8.586,35.393,6.83,45.144L6.83,45.144z M100.669,61.613 c-2.296,2.539-4.746,4.837-7.324,6.896C82.129,77.462,68.503,81.87,54.701,81.933c-13.756,0.062-27.68-4.197-39.546-12.578 c-2.878-2.032-5.636-4.307-8.242-6.821c1.82,9.569,6.511,18.134,13.126,24.75c8.614,8.614,20.532,13.963,33.67,13.963 c13.137,0,25.055-5.349,33.669-13.963C94.205,80.456,98.98,71.553,100.669,61.613L100.669,61.613z M53.049,48.604 c0.513,0,1.008,0.073,1.476,0.21c-0.394,0.433-0.633,1.008-0.633,1.639c0,1.347,1.092,2.439,2.438,2.439 c0.66,0,1.26-0.263,1.699-0.689c0.17,0.517,0.263,1.07,0.263,1.644c0,2.896-2.347,5.244-5.244,5.244 c-2.896,0-5.244-2.348-5.244-5.244C47.805,50.951,50.153,48.604,53.049,48.604L53.049,48.604z M53.049,35.105 c5.174,0,9.859,2.098,13.252,5.49c3.392,3.392,5.489,8.077,5.489,13.252c0,5.174-2.098,9.86-5.489,13.251 c-3.393,3.393-8.077,5.49-13.252,5.49c-5.175,0-9.86-2.098-13.252-5.49c-3.392-3.392-5.49-8.078-5.49-13.251 c0-5.175,2.098-9.86,5.49-13.252C43.188,37.203,47.874,35.105,53.049,35.105L53.049,35.105z M62.07,44.825 c-2.307-2.308-5.498-3.736-9.021-3.736c-3.524,0-6.715,1.429-9.022,3.736c-2.308,2.308-3.736,5.499-3.736,9.022 s1.428,6.714,3.736,9.022c2.308,2.308,5.498,3.736,9.022,3.736c3.524,0,6.714-1.429,9.021-3.736 c2.308-2.308,3.736-5.498,3.736-9.022S64.378,47.132,62.07,44.825L62.07,44.825z M12.853,47.894 c-2.006,1.826-3.938,3.79-5.786,5.888c3.514,4.076,7.426,7.599,11.615,10.557C29.507,71.983,42.18,75.87,54.677,75.813 c12.449-0.056,24.738-4.031,34.853-12.104c3.452-2.756,6.652-5.993,9.521-9.718c-2.405-2.508-4.857-4.786-7.345-6.835 C78.861,36.564,64.754,31.618,51.071,31.891C37.42,32.164,24.119,37.64,12.853,47.894L12.853,47.894z"/></g></svg>